<?xml version="1.0" encoding="UTF-8" standalone="no"?>
<!DOCTYPE svg PUBLIC "-//W3C//DTD SVG 1.1//EN" "http://www.w3.org/Graphics/SVG/1.1/DTD/svg11.dtd">
<svg width="100%" height="100%" viewBox="0 0 1280 640" version="1.1" xmlns="http://www.w3.org/2000/svg" xmlns:xlink="http://www.w3.org/1999/xlink" xml:space="preserve" xmlns:serif="http://www.serif.com/" style="fill-rule:evenodd;clip-rule:evenodd;stroke-linejoin:round;stroke-miterlimit:2;">
    <g transform="matrix(1.204693,0,0,1.204693,-146.12816,-49.551983)">
        <g transform="matrix(1,0,0,1,564.31258,284.939999)">
            <g transform="matrix(144,0,0,144,82.335938,0)">
            </g>
            <g transform="matrix(144,0,0,144,136.297856,0)">
            </g>
            <g transform="matrix(144,0,0,144,181.96875,0)">
            </g>
            <text x="0px" y="0px" style="font-family:'SegoeUI-BoldItalic', 'Segoe UI', sans-serif;font-weight:700;font-style:italic;font-size:144px;fill:rgb(128,128,128);">p<tspan x="82.336px " y="0px ">ﬂ</tspan></text>
        </g>
        <g transform="matrix(1,0,0,1,336.195392,412.626999)">
            <g transform="matrix(96,0,0,96,260.578125,0)">
            </g>
            <g transform="matrix(96,0,0,96,287.095872,0)">
            </g>
            <g transform="matrix(96,0,0,96,631.828125,0)">
            </g>
            <text x="0px" y="0px" style="font-family:'SegoeUI-SemilightItalic', 'Segoe UI', sans-serif;font-weight:350;font-style:italic;font-size:96px;fill:rgb(74,74,74);">photo ﬁles lister</text>
        </g>
        <g transform="matrix(0.881539,0,0,0.92057,236.754744,24.488666)">
            <path d="M327.167,203.699L327.167,280.499C327.167,301.692 309.199,318.899 287.067,318.899L163.209,318.899C141.078,318.899 123.109,301.692 123.109,280.499L123.109,203.699C123.109,182.506 141.078,165.3 163.209,165.3L287.067,165.3C309.199,165.3 327.167,182.506 327.167,203.699Z" style="fill:rgb(51,123,204);"/>
        </g>
        <g transform="matrix(0.830087,0,0,0.830087,311.508218,34.400733)">
            <path d="M149.038,208.696C175.449,208.696 196.891,230.138 196.891,256.548C196.891,282.959 175.449,304.401 149.038,304.401C122.628,304.401 101.186,282.959 101.186,256.548C101.186,230.138 122.628,208.696 149.038,208.696ZM149.038,232.622C162.243,232.622 172.964,243.343 172.964,256.548C172.964,269.753 162.243,280.474 149.038,280.474C135.833,280.474 125.112,269.753 125.112,256.548C125.112,243.343 135.833,232.622 149.038,232.622Z" style="fill:white;"/>
        </g>
        <g transform="matrix(0.99145,0,0,0.830087,55.655214,41.132457)">
            <path d="M410.646,150.303L410.646,168.432C410.646,173.435 407.245,177.497 403.056,177.497L361.845,177.497C357.656,177.497 354.256,173.435 354.256,168.432L354.256,150.303C354.256,145.3 357.656,141.238 361.845,141.238L403.056,141.238C407.245,141.238 410.646,145.3 410.646,150.303Z" style="fill:rgb(51,123,204);"/>
        </g>
        <g transform="matrix(0.830087,0,0,0.830087,325.289832,26.567529)">
            <circle cx="196.81" cy="209.359" r="8.773" style="fill:white;"/>
        </g>
    </g>
</svg>
